<svg height="512pt" viewBox="0 0 512 512" width="512pt" xmlns="http://www.w3.org/2000/svg"><path d="m512 256c0 141.386719-114.613281 256-256 256s-256-114.613281-256-256 114.613281-256 256-256 256 114.613281 256 256zm0 0" fill="#414952"/><path d="m512 256c0-20.945312-2.535156-41.296875-7.277344-60.777344l-74.722656-74.722656-348 271 113.222656 113.222656c19.480469 4.742188 39.832032 7.277344 60.777344 7.277344 141.386719 0 256-114.613281 256-256zm0 0" fill="#333940"/><path d="m82 120.5h348v271h-348zm0 0" fill="#bfe1ff"/><path d="m255.644531 120.5h174.355469v271h-174.355469zm0 0" fill="#a3d4ff"/><path d="m103 168h306v199h-306zm0 0" fill="#4a7aff"/><path d="m255.644531 168h153.355469v199h-153.355469zm0 0" fill="#0053bf"/><path d="m267 250h126.667969v17.5h-126.667969zm0 0" fill="#cdd2e1"/><path d="m267 209.089844h126.667969v17.5h-126.667969zm0 0" fill="#ffd400"/><path d="m267 280h126.667969v17.5h-126.667969zm0 0" fill="#cdd2e1"/><path d="m267 310h126.667969v17.5h-126.667969zm0 0" fill="#cdd2e1"/><path d="m132.25 143.125c0 8.351562-6.773438 15.125-15.125 15.125s-15.125-6.773438-15.125-15.125 6.773438-15.125 15.125-15.125 15.125 6.773438 15.125 15.125zm0 0" fill="#fe6a16"/><path d="m212.28125 143.125c0 8.351562-6.773438 15.125-15.125 15.125-8.355469 0-15.125-6.773438-15.125-15.125s6.769531-15.125 15.125-15.125c8.351562 0 15.125 6.773438 15.125 15.125zm0 0" fill="#4a7aff"/><path d="m171.5 143.125c0 8.351562-6.773438 15.125-15.125 15.125s-15.125-6.773438-15.125-15.125 6.773438-15.125 15.125-15.125 15.125 6.773438 15.125 15.125zm0 0" fill="#ff9d00"/><path d="m127 194.757812h110v132.742188h-110zm0 0" fill="#fff"/><g fill="#4a7aff"><path d="m210.664062 241.011719c0 15.816406-12.820312 28.636719-28.632812 28.636719-15.816406 0-28.636719-12.820313-28.636719-28.636719 0-15.8125 12.820313-28.632813 28.636719-28.632813 15.8125 0 28.632812 12.820313 28.632812 28.632813zm0 0"/><path d="m132.867188 311.621094h98.324218c-3.742187-23.785156-24.324218-41.972656-49.160156-41.972656s-45.417969 18.1875-49.164062 41.972656zm0 0"/></g></svg>